HIERARCHY
ROOT Hips
{
  OFFSET 13.6774 106.653 -34.4427
  CHANNELS 6 Xposition Yposition Zposition Zrotation Xrotation Yrotation
  JOINT ToSpine
  {
    OFFSET -2.69724 7.43032 -0.144315
    CHANNELS 3 Zrotation Xrotation Yrotation
    JOINT Spine
    {
      OFFSET -0.0310711 10.7595 1.96963
      CHANNELS 3 Zrotation Xrotation Yrotation
      JOINT Spine1
      {
        OFFSET 19.9056 3.91189 0.764692
        CHANNELS 3 Zrotation Xrotation Yrotation
        JOINT Neck
        {
          OFFSET 25.9749 7.03908 -0.130764
          CHANNELS 3 Zrotation Xrotation Yrotation
          JOINT Head
          {
            OFFSET 9.52751 0.295786 -0.907742
            CHANNELS 3 Zrotation Xrotation Yrotation
            End Site
            {
              OFFSET 16.4037 0.713936 2.7358
            }
          }
        }
        JOINT LeftShoulder
        {
          OFFSET 17.7449 4.33886 11.7777
          CHANNELS 3 Zrotation Xrotation Yrotation
          JOINT LeftArm
          {
            OFFSET 0.911315 1.27913 9.80584
            CHANNELS 3 Zrotation Xrotation Yrotation
            JOINT LeftForeArm
            {
              OFFSET 28.6126 1.18197 -3.53199
              CHANNELS 3 Zrotation Xrotation Yrotation
              JOINT LeftHand
              {
                OFFSET 27.5088 0.0218783 0.327423
                CHANNELS 3 Zrotation Xrotation Yrotation
                End Site
                {
                  OFFSET 18.6038 -0.000155887 0.382096
                }
              }
            }
          }
        }
        JOINT RightShoulder
        {
          OFFSET 17.1009 2.89543 -12.2328
          CHANNELS 3 Zrotation Xrotation Yrotation
          JOINT RightArm
          {
            OFFSET 1.4228 0.178766 -10.211
            CHANNELS 3 Zrotation Xrotation Yrotation
            JOINT RightForeArm
            {
              OFFSET 28.733 1.87905 2.64907
              CHANNELS 3 Zrotation Xrotation Yrotation
              JOINT RightHand
              {
                OFFSET 27.4588 0.290562 -0.101845
                CHANNELS 3 Zrotation Xrotation Yrotation
                End Site
                {
                  OFFSET 17.8396 -0.255518 -0.000602873
                }
              }
            }
          }
        }
      }
    }
  }
  JOINT LeftUpLeg
  {
    OFFSET -5.61296 -2.22332 -10.2353
    CHANNELS 3 Zrotation Xrotation Yrotation
    JOINT LeftLeg
    {
      OFFSET 2.56703 -44.7417 -7.93097
      CHANNELS 3 Zrotation Xrotation Yrotation
      JOINT LeftFoot
      {
        OFFSET 3.16933 -46.5642 -3.96578
        CHANNELS 3 Zrotation Xrotation Yrotation
        JOINT LeftToeBase
        {
          OFFSET 0.346054 -6.02161 12.8035
          CHANNELS 3 Zrotation Xrotation Yrotation
          End Site
          {
            OFFSET 0.134235 -1.35082 5.13018
          }
        }
      }
    }
  }
  JOINT RightUpLeg
  {
    OFFSET -5.7928 -1.72406 10.6446
    CHANNELS 3 Zrotation Xrotation Yrotation
    JOINT RightLeg
    {
      OFFSET -2.57161 -44.7178 -7.85259
      CHANNELS 3 Zrotation Xrotation Yrotation
      JOINT RightFoot
      {
        OFFSET -3.10148 -46.5936 -4.03391
        CHANNELS 3 Zrotation Xrotation Yrotation
        JOINT RightToeBase
        {
          OFFSET -0.0828122 -6.13587 12.8035
          CHANNELS 3 Zrotation Xrotation Yrotation
          End Site
          {
            OFFSET -0.131328 -1.35082 5.13018
          }
        }
      }
    }
  }
}
MOTION
Frames: 12
Frame Time: 0.03333333333333333
0.0000 93.1000 0.0000 4.5892 -74.2714 -87.8159 -70.6517 -0.9649 88.1868 92.6063 72.3076 -8.9094 0.4848 19.8769 4.1713 -151.4186 22.7927 173.6543 -157.3665 61.9516 -172.2942 -0.7941 -14.2996 -34.3683 -78.4173 43.2020 -87.0706 10.2090 17.8644 -30.9647 0.0757 0.4175 -0.1107 -3.1998 5.9246 46.8115 -86.7564 -22.5689 76.7843 1.8734 -17.0363 21.6235 0.2292 -0.2243 0.1671 -44.1351 13.1028 82.3654 -4.5080 44.0371 -14.6334 -2.8075 -13.1485 -1.8693 6.3252 -14.0496 8.4922 -47.1068 -22.3348 100.5726 1.2393 38.9695 -5.1429 -0.4271 -0.0627 -0.6390 2.2378 -18.1041 -6.5627 
0.0000 93.1000 0.0000 5.0652 -73.8042 -86.2677 -70.6223 -0.9704 88.1342 92.4218 71.8728 -7.4441 0.5730 20.2391 4.0784 -150.4543 22.9756 174.8279 -156.2029 62.5294 -172.5755 -0.8742 -14.2920 -33.8776 -74.5042 43.0592 -89.3377 10.3139 16.8169 -30.5843 0.1182 0.4367 -0.0995 -2.9763 5.1528 46.4398 -91.2053 -23.9218 74.7704 3.6954 -18.4398 22.5796 0.1757 -0.2949 -0.2897 -43.7453 10.6744 83.5485 -4.3843 45.5279 -15.4175 -1.4469 -14.1220 -2.0961 5.4437 -13.8418 8.3086 -47.0256 -23.5201 100.2841 -0.2201 35.0258 -3.8583 -0.8341 5.5512 -0.9245 1.5199 -12.6102 -9.7571 
0.0000 93.1000 0.0000 3.3932 -73.3067 -88.1591 -70.6281 -0.5726 88.2093 90.8722 72.0237 -5.4648 0.9570 20.5201 4.3394 -151.9881 23.1531 175.3650 -158.8347 63.0850 -172.3241 -0.4645 -14.0337 -33.6759 -73.4656 42.9336 -89.3328 9.6943 16.6427 -32.0019 0.2504 0.1181 -0.0224 -2.8451 5.0704 45.5535 -90.5985 -25.5622 74.7084 5.5795 -15.5324 23.8792 0.0991 0.0806 -0.7019 -44.4171 8.7850 85.2701 -3.6605 44.6958 -14.0074 -0.5410 -14.8656 -1.9767 4.4009 -11.8990 6.6069 -46.0458 -24.0933 97.8621 -1.6747 33.8692 -0.7651 -2.3090 8.7570 -0.8888 1.3797 -6.4455 -10.9986 
0.0000 93.1000 0.0000 0.8389 -72.6159 -90.5897 -70.6014 -0.4631 87.8527 90.6627 72.3477 -5.0168 -0.2403 20.6953 4.2959 -152.7347 23.4199 176.1876 -159.6967 63.3761 -170.5929 -0.3212 -13.8540 -34.0267 -75.5074 42.0927 -87.1547 10.7359 16.6360 -33.7740 0.6158 -0.3667 -0.4979 -3.1081 4.9594 46.1382 -87.0741 -27.5763 76.4795 5.9968 -12.8327 25.1943 0.0033 0.6101 -1.1158 -44.9496 6.9239 85.9560 -3.5025 43.9015 -13.8567 0.0859 -13.7367 -1.4518 3.8264 -10.8451 7.7213 -45.3654 -22.7173 98.8155 -1.7172 35.0260 -1.7631 -3.0660 6.5098 -0.8070 1.7284 -5.5265 -11.9840 
0.0000 93.1000 0.0000 -0.1690 -72.9233 -91.4516 -70.7882 -0.2323 87.8047 92.1562 73.0127 -6.7175 -0.4925 20.9343 4.2162 -153.8428 23.5065 175.3622 -160.3517 62.9800 -170.8148 -0.2801 -13.3812 -33.9085 -76.2149 41.7722 -85.1455 10.3754 15.9546 -33.8815 0.5670 0.1787 -0.3673 -2.4847 4.9207 46.4350 -84.3858 -28.8471 78.6809 6.0664 -12.9752 27.2247 0.6106 0.0177 -0.1393 -46.1587 6.1319 85.4083 -3.8759 42.2894 -12.7536 1.0576 -12.8538 -2.1952 2.8224 -9.3044 8.3747 -44.9013 -18.2578 102.5896 0.0588 36.7895 -6.0237 -3.8568 3.1186 -0.1761 2.2833 -7.4710 -16.2866 
0.0000 93.1000 0.0000 -0.8744 -72.0200 -91.8611 -70.8315 -0.6377 87.9104 91.9791 72.9081 -7.1372 -0.2765 21.0407 4.0930 -153.7683 23.1482 175.5950 -162.2029 62.7661 -171.6423 -0.5737 -13.7171 -33.3184 -76.5097 41.1482 -84.0906 9.2065 14.4237 -33.8801 0.2076 0.5874 0.0730 -2.4738 4.5937 46.3309 -80.6726 -30.2466 81.8024 7.1184 -13.0788 28.7319 0.4062 -0.4310 0.0644 -46.2644 4.7307 85.5787 -4.0938 40.8243 -11.9569 1.2065 -12.4919 -2.3244 2.3762 -9.2745 6.9850 -45.0398 -14.7087 101.8952 0.0945 40.0339 -7.3152 -4.7349 -1.7386 0.0771 2.4024 -11.1086 -16.1035 
0.0000 93.1000 0.0000 0.9865 -72.1613 -90.7504 -70.8359 -1.1237 88.0188 90.0534 72.4797 -6.1436 -0.1141 20.8183 4.0342 -154.0870 23.4942 174.6686 -159.9781 62.9577 -172.2684 -0.8227 -14.0297 -32.9736 -78.3514 40.5271 -82.5314 9.9196 16.1415 -33.2660 -0.0294 0.2811 0.2186 -3.1785 4.8594 46.1111 -78.8780 -31.5153 83.6639 8.6883 -14.9216 30.0298 -0.3527 -0.1054 -0.2290 -46.3387 3.5962 85.6178 -3.9106 38.7892 -11.3298 2.2210 -11.9592 -1.7078 2.3189 -9.0609 5.5772 -44.3207 -12.3206 97.9821 -0.0598 42.2035 -7.6930 -5.6304 -6.2983 -0.4004 2.0475 -14.1203 -14.9699 
0.0000 93.1000 0.0000 2.1857 -71.8526 -88.6590 -70.6923 -0.5280 88.1096 90.7278 72.4968 -7.1613 -0.1220 20.7306 4.3754 -153.9220 23.3211 174.4942 -160.5628 63.3255 -170.7094 -0.4198 -13.7488 -32.3257 -78.0509 39.4233 -82.0221 10.1148 17.4570 -32.0232 -0.1248 0.2675 0.4847 -2.6693 4.6518 45.8603 -79.0075 -31.3149 83.8284 8.9243 -15.5971 31.4845 -0.1106 -0.1275 -0.0334 -46.2097 2.8710 85.7233 -3.2248 38.1881 -10.9566 1.8263 -12.3030 -2.1973 2.0916 -7.8483 4.7321 -44.2775 -8.9506 94.2090 0.9266 43.6807 -8.0716 -5.8685 -8.6204 0.2263 2.1565 -15.3003 -16.5192 
0.0000 93.1000 0.0000 3.9522 -72.0254 -86.4908 -70.6698 -0.4333 88.1330 90.0803 72.0596 -7.2688 -1.0676 20.1785 5.1679 -154.0335 23.1189 175.1448 -160.3651 62.7762 -171.3134 -0.4214 -13.5053 -32.0264 -77.8911 38.6979 -82.9160 9.4277 17.2180 -30.8796 -0.0518 0.4340 0.4054 -2.5278 4.8082 46.1201 -77.2743 -32.0284 84.7228 9.1597 -15.1510 33.2159 -0.1114 -0.3524 0.0154 -46.1835 2.9311 85.3568 -3.2368 36.9089 -11.3268 1.9589 -10.7577 -2.2695 1.5276 -7.1193 4.2216 -44.2663 -5.5738 89.8520 1.2195 44.0737 -8.0937 -7.4861 -11.2243 0.7840 1.9994 -17.5955 -15.4044 
0.0000 93.1000 0.0000 4.2996 -72.0629 -84.5878 -70.5525 -0.4536 88.0289 89.8431 72.1917 -7.3412 -1.2940 19.8511 4.7747 -153.8742 23.0502 173.7303 -159.4812 62.8525 -171.9264 -0.4238 -13.7377 -31.7923 -78.4006 38.9481 -82.0237 8.7891 16.6507 -30.0047 -0.3004 0.3810 0.3551 -2.7413 4.9874 47.0140 -76.1068 -31.7404 84.6490 9.0187 -15.0810 34.6093 -0.5296 -0.2708 -0.0835 -46.1025 1.9099 86.1026 -3.4444 36.0499 -11.9320 3.2388 -11.3693 -2.3689 1.0815 -5.9710 3.1119 -43.8247 -2.8467 86.6728 0.0365 43.8074 -8.1257 -8.1031 -12.3863 0.7586 1.2853 -18.2505 -15.0904 
0.0000 93.1000 0.0000 4.5610 -72.2903 -84.4605 -70.5252 -0.1599 87.9564 88.9302 71.9369 -6.7416 -1.1217 20.2013 4.2704 -154.1096 23.0539 174.7662 -160.6987 63.1024 -169.9994 -0.1701 -14.1260 -31.8584 -78.5786 38.0928 -83.1231 7.5619 15.6104 -29.0964 0.2755 0.0418 -0.1739 -2.7829 5.2093 47.2175 -75.0317 -32.1012 85.7043 9.2281 -14.0876 34.8931 -0.3482 0.0856 -0.3452 -46.6670 0.9293 85.8535 -3.2302 34.8247 -10.4249 3.7597 -11.4413 -2.3561 0.9856 -5.0036 2.1478 -44.2289 -0.0173 85.2750 1.0445 43.0874 -6.0504 -8.3042 -14.0548 0.8667 2.0171 -18.7685 -16.5383 
0.0000 93.1000 0.0000 5.4373 -72.1134 -83.7923 -70.5009 0.1650 87.8449 89.0434 72.0774 -6.7338 -0.8000 20.0108 3.6896 -154.5772 23.0611 174.0815 -160.9513 63.1433 -170.8259 0.1710 -14.1062 -31.9838 -78.5738 37.3732 -83.0044 6.1799 14.6026 -27.7389 0.1315 -0.0443 0.1078 -2.5990 5.4156 46.8745 -73.0266 -32.9252 87.0008 8.8316 -14.2352 35.4163 0.0886 0.2311 -0.0073 -47.0444 -0.3300 86.2932 -2.5527 34.8743 -11.0007 4.3168 -10.9179 -2.2957 1.2206 -5.3565 1.8338 -45.2149 2.9459 84.3990 0.3281 41.6872 -5.5934 -8.9579 -15.0903 0.9706 1.8126 -18.4783 -15.2644 
